<svg id="Layer_1" data-name="Layer 1" xmlns="http://www.w3.org/2000/svg" viewBox="0 0 1777.85 568.93"><title>logo</title><path d="M737.22,267.25a67.21,67.21,0,0,0,31.13-26.87q11.11-18.13,11.12-45.38,0-42.49-21.87-61.75T694.47,114H645.72V276h44.5Q717.22,276,737.22,267.25Zm-68.5-10.75v-123H695q31,0,45.75,14.88T755.47,195q0,24-8.25,37.5a43.25,43.25,0,0,1-23,18.75q-14.75,5.25-36.75,5.25Z" transform="translate(0.04)"/><path d="M816.59,270.38q9.63,8.63,24.88,8.62,19.74,0,39-11.25l1.25,8.25H901V164l-21.5,2.5V251q-18,9.25-30,9.25-8,0-12.5-2.12a12.78,12.78,0,0,1-6.5-7q-2-4.87-2-13.13V164L807,166.5v77.75Q807,261.76,816.59,270.38Z" transform="translate(0.04)"/><path d="M1004.72,273a53.62,53.62,0,0,0,23.62-19.62q9.38-13.63,9.38-35.38a77.43,77.43,0,0,0-4.75-27.87,42.21,42.21,0,0,0-14.5-19.5q-9.75-7.12-24.25-7.13a75.35,75.35,0,0,0-36.75,9.75V101.5L936,104V271.75q22.5,7.25,39.25,7.25A75.32,75.32,0,0,0,1004.72,273Zm-47.25-13.75v-70q16-7.25,30.75-7.25,13.5,0,20,9.25t6.5,26.25q0,23.5-11.25,33.63t-29,10.12A83,83,0,0,1,957.47,259.25Z" transform="translate(0.04)"/><path d="M1089.71,213.75q-16.24,4.26-26,13.38A30,30,0,0,0,1054,250a28,28,0,0,0,4.13,15.13,27.4,27.4,0,0,0,11.62,10.25,38.68,38.68,0,0,0,17,3.62q22.5,0,39.75-12.5l1.25,9.5h19.5V199.75q0-18.75-9.62-27.5t-28.88-8.75q-26.25,0-50.25,16.5l9.5,15q19.76-13,38-13,10.76,0,15.25,5.13t4.5,16.37V209A158.81,158.81,0,0,0,1089.71,213.75Zm36,37q-16.24,10-33.25,10-7.74,0-11.62-3.25t-3.88-9.75q0-10.5,13.5-16.25t35.25-6.75Z" transform="translate(0.04)"/><path d="M1184,142.13a14.24,14.24,0,0,0,7.5,2.12,14.7,14.7,0,0,0,7.75-2.12,16.57,16.57,0,0,0,5.63-5.63A14.24,14.24,0,0,0,1207,129a14.73,14.73,0,0,0-2.12-7.75,16.54,16.54,0,0,0-5.63-5.62,14.62,14.62,0,0,0-7.75-2.13,14.16,14.16,0,0,0-7.5,2.13,16.43,16.43,0,0,0-5.62,5.62,14.64,14.64,0,0,0-2.13,7.75,14.16,14.16,0,0,0,2.13,7.5A16.46,16.46,0,0,0,1184,142.13Z" transform="translate(0.04)"/><polygon points="1181 276 1202.5 276 1202.5 164 1181 166.5 1181 276"/><polygon points="748.26 488 668.76 488 668.76 346 645.76 346 645.76 508 748.26 508 748.26 488"/><path d="M798.47,445.75q-16.26,4.26-26,13.38A30,30,0,0,0,762.72,482a28,28,0,0,0,4.12,15.13,27.43,27.43,0,0,0,11.63,10.25,38.65,38.65,0,0,0,17,3.62q22.5,0,39.75-12.5l1.25,9.5H856V431.75q0-18.75-9.63-27.5t-28.87-8.75q-26.25,0-50.25,16.5l9.5,15q19.74-13,38-13,10.74,0,15.25,5.13t4.5,16.37V441A158.66,158.66,0,0,0,798.47,445.75Zm36,37q-16.26,10-33.25,10-7.76,0-11.63-3.25t-3.87-9.75q0-10.5,13.5-16.25t35.25-6.75Z" transform="translate(0.04)"/><path d="M889.72,398.5V508h21.5V422a88.13,88.13,0,0,1,16-5.62,65.92,65.92,0,0,1,16-2.13q7.5,0,11.87,2.25a12.86,12.86,0,0,1,6.25,7.38c1.25,3.41,1.88,8.21,1.88,14.37V508h21.5V430.25q0-34.74-33.5-34.75-19,0-40,11V396Z" transform="translate(0.04)"/><path d="M1066.22,395.5a58.41,58.41,0,0,0-29,7.13,50.75,50.75,0,0,0-20.13,20.87q-7.38,13.75-7.37,32.75,0,16.75,5.37,29.13a41.65,41.65,0,0,0,15.63,19Q1041,511,1055.47,511a58.56,58.56,0,0,0,17.25-2.87A88.46,88.46,0,0,0,1091,500l1,8h19.5V333.5L1090,336v62.75A99,99,0,0,0,1066.22,395.5ZM1090,484.25q-14,8.25-28.5,8.25-13.76,0-21.25-9t-7.5-27.75q0-14.49,4.62-24.25t12.5-14.37A35.06,35.06,0,0,1,1068,412.5a69.37,69.37,0,0,1,22,3.75Z" transform="translate(0.04)"/><path d="M1146.46,398.5V508H1168V421.75a94.3,94.3,0,0,1,14.75-5.37,55.74,55.74,0,0,1,14.75-2.13q6.75,0,10.5,2.25a12.63,12.63,0,0,1,5.38,7.38c1.08,3.41,1.62,8.21,1.62,14.37V508h21.5V429.5c0-1.66-.16-4.16-.5-7.5a78.44,78.44,0,0,1,15-5.62,59.35,59.35,0,0,1,15.25-2.13q6.75,0,10.5,2.25a13.08,13.08,0,0,1,5.5,7.38c1.17,3.41,1.75,8.21,1.75,14.37V508h21.5V429.5q0-18-8.5-26t-22.75-8a75.9,75.9,0,0,0-22.37,3.5,97,97,0,0,0-20.38,8.75q-7.5-12.24-26-12.25-18.24,0-37.5,11V396Z" transform="translate(0.04)"/><path d="M1365,445.75q-16.24,4.26-26,13.38a30,30,0,0,0-9.75,22.87,28,28,0,0,0,4.13,15.13A27.4,27.4,0,0,0,1345,507.38a38.68,38.68,0,0,0,17,3.62q22.5,0,39.75-12.5L1403,508h19.5V431.75q0-18.75-9.62-27.5T1384,395.5q-26.25,0-50.25,16.5l9.5,15q19.76-13,38-13,10.76,0,15.25,5.13t4.5,16.37V441A158.81,158.81,0,0,0,1365,445.75Zm36,37q-16.24,10-33.25,10-7.74,0-11.62-3.25t-3.88-9.75q0-10.5,13.5-16.25t35.25-6.75Z" transform="translate(0.04)"/><path d="M1477.71,433.5q6.26-9.75,13-13.25a31.61,31.61,0,0,1,14.75-3.5,47,47,0,0,1,15.5,3l4-22.25q-4-1-7.5-1.5a55.56,55.56,0,0,0-7.75-.5,38.61,38.61,0,0,0-17.5,4.13,42.53,42.53,0,0,0-14.5,12.12V396l-21.5,2.25V508h21.5Z" transform="translate(0.04)"/><polygon points="1567.75 450.75 1614 508 1640.25 508 1640.25 506.5 1592.5 449.5 1638 400 1638 398.5 1614.25 398.5 1567.75 449 1567.75 333.5 1546.25 336 1546.25 508 1567.75 508 1567.75 450.75"/><path d="M1713.71,490.13q-6,3.87-17.25,3.87-19.76,0-38-13l-9.5,15.25a70.73,70.73,0,0,0,21.75,11.13,90,90,0,0,0,26.5,3.62q14.25,0,24.25-4.25t15.12-11.87a30.85,30.85,0,0,0,5.13-17.63,30.19,30.19,0,0,0-4-15.87q-4-6.63-12.63-11.38t-22.87-8.5l-7.75-2q-10.26-2.75-14.38-5.62a9.34,9.34,0,0,1-4.12-8.13,11.22,11.22,0,0,1,5.12-9.62q5.13-3.63,14.13-3.63a58.36,58.36,0,0,1,16,2.13,92,92,0,0,1,17.75,7.62l8.75-15.25a82.64,82.64,0,0,0-21.13-8.87A87.81,87.81,0,0,0,1695,395.5a53.46,53.46,0,0,0-21.13,4,34.47,34.47,0,0,0-14.62,11.13A26.88,26.88,0,0,0,1654,427q0,12.25,8.12,19.63t25.63,11.87l7.75,2q13.5,3.51,18.87,7.88t5.38,10.37A12.7,12.7,0,0,1,1713.71,490.13Z" transform="translate(0.04)"/><path d="M605.33,539.59V324l-54.84-39.88V262.08h-12.1V539.59H532V217.21H519.87v20.65l-63.38,47V539.59H438V279.88H423v-29.2H368.18v29.2h-15V539.59H334.7V404.53H318.33V299.82H304.09V185.87h-6.41V0h-9.25V106.11h-8.55V253.53h-11.4V460.05h-10v79.54H240V319.05H223.61c7.84-12.11,7.84-39.88,7.84-39.88-7.84,33.47-72.64,24.93-72.64,24.93,2.84,6.4,11.39,11.39,22.07,14.95H158.81V539.59h-7.15c-3.16-163-86.2-212-109.65-222.68V297.69H29.2v241.9H0v29.34H1777.81V539.59Z" transform="translate(0.04)"/></svg>